<mxfile host="app.diagrams.net" modified="2024-04-15T11:11:12.715Z" agent="Mozilla/5.0 (Windows NT 10.0; Win64; x64) AppleWebKit/537.36 (KHTML, like Gecko) Chrome/123.0.0.0 Safari/537.36" etag="6CrSR-U_ETSwAMzPIdQ6" version="24.2.2" type="github">
  <diagram name="第 1 页" id="GRprfwnS9hDLCjnfYYwJ">
    <mxGraphModel dx="989" dy="509" grid="0" gridSize="10" guides="1" tooltips="1" connect="1" arrows="1" fold="1" page="1" pageScale="1" pageWidth="827" pageHeight="1169" math="0" shadow="0">
      <root>
        <mxCell id="0" />
        <mxCell id="1" parent="0" />
        <mxCell id="Vnse6Dm6Ba-L_hpYAqCk-1" value="" style="rounded=0;whiteSpace=wrap;html=1;fillColor=#d5e8d4;strokeColor=#82b366;" vertex="1" parent="1">
          <mxGeometry x="90" y="270" width="20" height="20" as="geometry" />
        </mxCell>
        <mxCell id="Vnse6Dm6Ba-L_hpYAqCk-3" value="" style="rounded=0;whiteSpace=wrap;html=1;fillColor=#d5e8d4;strokeColor=#82b366;" vertex="1" parent="1">
          <mxGeometry x="90" y="180" width="20" height="20" as="geometry" />
        </mxCell>
        <mxCell id="Vnse6Dm6Ba-L_hpYAqCk-4" value="" style="rounded=0;whiteSpace=wrap;html=1;fillColor=#d5e8d4;strokeColor=#82b366;" vertex="1" parent="1">
          <mxGeometry x="90" y="210" width="20" height="20" as="geometry" />
        </mxCell>
        <mxCell id="Vnse6Dm6Ba-L_hpYAqCk-51" value="" style="edgeStyle=orthogonalEdgeStyle;rounded=0;orthogonalLoop=1;jettySize=auto;html=1;" edge="1" parent="1" source="Vnse6Dm6Ba-L_hpYAqCk-5" target="Vnse6Dm6Ba-L_hpYAqCk-9">
          <mxGeometry relative="1" as="geometry" />
        </mxCell>
        <mxCell id="Vnse6Dm6Ba-L_hpYAqCk-5" value="" style="rounded=0;whiteSpace=wrap;html=1;fillColor=#d5e8d4;strokeColor=#82b366;" vertex="1" parent="1">
          <mxGeometry x="90" y="240" width="20" height="20" as="geometry" />
        </mxCell>
        <mxCell id="Vnse6Dm6Ba-L_hpYAqCk-6" value="" style="rounded=0;whiteSpace=wrap;html=1;fillColor=#d5e8d4;strokeColor=#82b366;" vertex="1" parent="1">
          <mxGeometry x="90" y="300" width="20" height="20" as="geometry" />
        </mxCell>
        <mxCell id="Vnse6Dm6Ba-L_hpYAqCk-59" value="" style="edgeStyle=orthogonalEdgeStyle;rounded=0;orthogonalLoop=1;jettySize=auto;html=1;" edge="1" parent="1" source="Vnse6Dm6Ba-L_hpYAqCk-9" target="Vnse6Dm6Ba-L_hpYAqCk-23">
          <mxGeometry relative="1" as="geometry" />
        </mxCell>
        <mxCell id="Vnse6Dm6Ba-L_hpYAqCk-9" value="条件扩散模型" style="rounded=0;whiteSpace=wrap;html=1;fillColor=#b1ddf0;strokeColor=#10739e;" vertex="1" parent="1">
          <mxGeometry x="150" y="215" width="180" height="70" as="geometry" />
        </mxCell>
        <mxCell id="Vnse6Dm6Ba-L_hpYAqCk-12" value="" style="rounded=0;whiteSpace=wrap;html=1;fillColor=#f8cecc;strokeColor=#b85450;" vertex="1" parent="1">
          <mxGeometry x="150" y="80" width="20" height="20" as="geometry" />
        </mxCell>
        <mxCell id="Vnse6Dm6Ba-L_hpYAqCk-55" style="edgeStyle=orthogonalEdgeStyle;rounded=0;orthogonalLoop=1;jettySize=auto;html=1;exitX=0.5;exitY=1;exitDx=0;exitDy=0;entryX=0.5;entryY=0;entryDx=0;entryDy=0;" edge="1" parent="1" source="Vnse6Dm6Ba-L_hpYAqCk-13" target="Vnse6Dm6Ba-L_hpYAqCk-15">
          <mxGeometry relative="1" as="geometry" />
        </mxCell>
        <mxCell id="Vnse6Dm6Ba-L_hpYAqCk-13" value="" style="rounded=0;whiteSpace=wrap;html=1;fillColor=#f8cecc;strokeColor=#b85450;" vertex="1" parent="1">
          <mxGeometry x="180" y="80" width="20" height="20" as="geometry" />
        </mxCell>
        <mxCell id="Vnse6Dm6Ba-L_hpYAqCk-14" value="" style="rounded=0;whiteSpace=wrap;html=1;fillColor=#f8cecc;strokeColor=#b85450;" vertex="1" parent="1">
          <mxGeometry x="210" y="80" width="20" height="20" as="geometry" />
        </mxCell>
        <mxCell id="Vnse6Dm6Ba-L_hpYAqCk-56" style="edgeStyle=orthogonalEdgeStyle;rounded=0;orthogonalLoop=1;jettySize=auto;html=1;exitX=0.5;exitY=1;exitDx=0;exitDy=0;entryX=0.5;entryY=0;entryDx=0;entryDy=0;" edge="1" parent="1" source="Vnse6Dm6Ba-L_hpYAqCk-15" target="Vnse6Dm6Ba-L_hpYAqCk-16">
          <mxGeometry relative="1" as="geometry" />
        </mxCell>
        <mxCell id="Vnse6Dm6Ba-L_hpYAqCk-15" value="视觉编码器" style="rounded=0;whiteSpace=wrap;html=1;fillColor=#fff2cc;strokeColor=#d6b656;" vertex="1" parent="1">
          <mxGeometry x="155" y="120" width="70" height="30" as="geometry" />
        </mxCell>
        <mxCell id="Vnse6Dm6Ba-L_hpYAqCk-57" style="edgeStyle=orthogonalEdgeStyle;rounded=0;orthogonalLoop=1;jettySize=auto;html=1;exitX=0.5;exitY=1;exitDx=0;exitDy=0;" edge="1" parent="1" source="Vnse6Dm6Ba-L_hpYAqCk-16">
          <mxGeometry relative="1" as="geometry">
            <mxPoint x="190.31034482758628" y="210" as="targetPoint" />
          </mxGeometry>
        </mxCell>
        <mxCell id="Vnse6Dm6Ba-L_hpYAqCk-16" value="映射层" style="rounded=0;whiteSpace=wrap;html=1;fillColor=#e1d5e7;strokeColor=#9673a6;" vertex="1" parent="1">
          <mxGeometry x="150" y="170" width="80" height="20" as="geometry" />
        </mxCell>
        <mxCell id="Vnse6Dm6Ba-L_hpYAqCk-17" value="" style="rounded=0;whiteSpace=wrap;html=1;fillColor=#dae8fc;strokeColor=#6c8ebf;" vertex="1" parent="1">
          <mxGeometry x="250" y="170" width="20" height="20" as="geometry" />
        </mxCell>
        <mxCell id="Vnse6Dm6Ba-L_hpYAqCk-58" style="edgeStyle=orthogonalEdgeStyle;rounded=0;orthogonalLoop=1;jettySize=auto;html=1;exitX=0.5;exitY=1;exitDx=0;exitDy=0;" edge="1" parent="1" source="Vnse6Dm6Ba-L_hpYAqCk-18">
          <mxGeometry relative="1" as="geometry">
            <mxPoint x="290.3103448275863" y="210" as="targetPoint" />
          </mxGeometry>
        </mxCell>
        <mxCell id="Vnse6Dm6Ba-L_hpYAqCk-18" value="" style="rounded=0;whiteSpace=wrap;html=1;fillColor=#dae8fc;strokeColor=#6c8ebf;" vertex="1" parent="1">
          <mxGeometry x="280" y="170" width="20" height="20" as="geometry" />
        </mxCell>
        <mxCell id="Vnse6Dm6Ba-L_hpYAqCk-19" value="" style="rounded=0;whiteSpace=wrap;html=1;fillColor=#dae8fc;strokeColor=#6c8ebf;" vertex="1" parent="1">
          <mxGeometry x="310" y="170" width="20" height="20" as="geometry" />
        </mxCell>
        <mxCell id="Vnse6Dm6Ba-L_hpYAqCk-20" value="" style="rounded=0;whiteSpace=wrap;html=1;fillColor=#d5e8d4;strokeColor=#82b366;" vertex="1" parent="1">
          <mxGeometry x="370" y="270" width="20" height="20" as="geometry" />
        </mxCell>
        <mxCell id="Vnse6Dm6Ba-L_hpYAqCk-21" value="" style="rounded=0;whiteSpace=wrap;html=1;fillColor=#d5e8d4;strokeColor=#82b366;" vertex="1" parent="1">
          <mxGeometry x="370" y="180" width="20" height="20" as="geometry" />
        </mxCell>
        <mxCell id="Vnse6Dm6Ba-L_hpYAqCk-22" value="" style="rounded=0;whiteSpace=wrap;html=1;fillColor=#d5e8d4;strokeColor=#82b366;" vertex="1" parent="1">
          <mxGeometry x="370" y="210" width="20" height="20" as="geometry" />
        </mxCell>
        <mxCell id="Vnse6Dm6Ba-L_hpYAqCk-61" value="" style="edgeStyle=orthogonalEdgeStyle;rounded=0;orthogonalLoop=1;jettySize=auto;html=1;" edge="1" parent="1" source="Vnse6Dm6Ba-L_hpYAqCk-23" target="Vnse6Dm6Ba-L_hpYAqCk-50">
          <mxGeometry relative="1" as="geometry" />
        </mxCell>
        <mxCell id="Vnse6Dm6Ba-L_hpYAqCk-23" value="" style="rounded=0;whiteSpace=wrap;html=1;fillColor=#d5e8d4;strokeColor=#82b366;" vertex="1" parent="1">
          <mxGeometry x="370" y="240" width="20" height="20" as="geometry" />
        </mxCell>
        <mxCell id="Vnse6Dm6Ba-L_hpYAqCk-24" value="" style="rounded=0;whiteSpace=wrap;html=1;fillColor=#d5e8d4;strokeColor=#82b366;" vertex="1" parent="1">
          <mxGeometry x="370" y="300" width="20" height="20" as="geometry" />
        </mxCell>
        <mxCell id="Vnse6Dm6Ba-L_hpYAqCk-25" value="动作序列" style="text;html=1;align=center;verticalAlign=middle;whiteSpace=wrap;rounded=0;" vertex="1" parent="1">
          <mxGeometry x="60" y="205" width="20" height="90" as="geometry" />
        </mxCell>
        <mxCell id="Vnse6Dm6Ba-L_hpYAqCk-26" value="环境信息" style="text;html=1;align=center;verticalAlign=middle;whiteSpace=wrap;rounded=0;" vertex="1" parent="1">
          <mxGeometry x="160" y="50" width="60" height="30" as="geometry" />
        </mxCell>
        <mxCell id="Vnse6Dm6Ba-L_hpYAqCk-27" value="任务标识符" style="text;html=1;align=center;verticalAlign=middle;whiteSpace=wrap;rounded=0;" vertex="1" parent="1">
          <mxGeometry x="255" y="140" width="70" height="30" as="geometry" />
        </mxCell>
        <mxCell id="Vnse6Dm6Ba-L_hpYAqCk-28" value="" style="rounded=0;whiteSpace=wrap;html=1;fillColor=#d5e8d4;strokeColor=#82b366;" vertex="1" parent="1">
          <mxGeometry x="100" y="620" width="20" height="20" as="geometry" />
        </mxCell>
        <mxCell id="Vnse6Dm6Ba-L_hpYAqCk-29" value="" style="rounded=0;whiteSpace=wrap;html=1;fillColor=#d5e8d4;strokeColor=#82b366;" vertex="1" parent="1">
          <mxGeometry x="100" y="530" width="20" height="20" as="geometry" />
        </mxCell>
        <mxCell id="Vnse6Dm6Ba-L_hpYAqCk-30" value="" style="rounded=0;whiteSpace=wrap;html=1;fillColor=#d5e8d4;strokeColor=#82b366;" vertex="1" parent="1">
          <mxGeometry x="100" y="560" width="20" height="20" as="geometry" />
        </mxCell>
        <mxCell id="Vnse6Dm6Ba-L_hpYAqCk-31" value="" style="rounded=0;whiteSpace=wrap;html=1;fillColor=#d5e8d4;strokeColor=#82b366;" vertex="1" parent="1">
          <mxGeometry x="100" y="590" width="20" height="20" as="geometry" />
        </mxCell>
        <mxCell id="Vnse6Dm6Ba-L_hpYAqCk-32" value="" style="rounded=0;whiteSpace=wrap;html=1;fillColor=#d5e8d4;strokeColor=#82b366;" vertex="1" parent="1">
          <mxGeometry x="100" y="650" width="20" height="20" as="geometry" />
        </mxCell>
        <mxCell id="Vnse6Dm6Ba-L_hpYAqCk-33" value="条件扩散模型" style="rounded=0;whiteSpace=wrap;html=1;" vertex="1" parent="1">
          <mxGeometry x="160" y="565" width="180" height="70" as="geometry" />
        </mxCell>
        <mxCell id="Vnse6Dm6Ba-L_hpYAqCk-34" value="" style="rounded=0;whiteSpace=wrap;html=1;fillColor=#d5e8d4;strokeColor=#82b366;" vertex="1" parent="1">
          <mxGeometry x="160" y="430" width="20" height="20" as="geometry" />
        </mxCell>
        <mxCell id="Vnse6Dm6Ba-L_hpYAqCk-35" value="" style="rounded=0;whiteSpace=wrap;html=1;fillColor=#d5e8d4;strokeColor=#82b366;" vertex="1" parent="1">
          <mxGeometry x="190" y="430" width="20" height="20" as="geometry" />
        </mxCell>
        <mxCell id="Vnse6Dm6Ba-L_hpYAqCk-36" value="" style="rounded=0;whiteSpace=wrap;html=1;fillColor=#d5e8d4;strokeColor=#82b366;" vertex="1" parent="1">
          <mxGeometry x="220" y="430" width="20" height="20" as="geometry" />
        </mxCell>
        <mxCell id="Vnse6Dm6Ba-L_hpYAqCk-37" value="视觉编码器" style="rounded=0;whiteSpace=wrap;html=1;" vertex="1" parent="1">
          <mxGeometry x="165" y="470" width="70" height="30" as="geometry" />
        </mxCell>
        <mxCell id="Vnse6Dm6Ba-L_hpYAqCk-38" value="映射层" style="rounded=0;whiteSpace=wrap;html=1;" vertex="1" parent="1">
          <mxGeometry x="160" y="520" width="80" height="20" as="geometry" />
        </mxCell>
        <mxCell id="Vnse6Dm6Ba-L_hpYAqCk-39" value="" style="rounded=0;whiteSpace=wrap;html=1;fillColor=#d5e8d4;strokeColor=#82b366;" vertex="1" parent="1">
          <mxGeometry x="260" y="520" width="20" height="20" as="geometry" />
        </mxCell>
        <mxCell id="Vnse6Dm6Ba-L_hpYAqCk-40" value="" style="rounded=0;whiteSpace=wrap;html=1;fillColor=#d5e8d4;strokeColor=#82b366;" vertex="1" parent="1">
          <mxGeometry x="290" y="520" width="20" height="20" as="geometry" />
        </mxCell>
        <mxCell id="Vnse6Dm6Ba-L_hpYAqCk-41" value="" style="rounded=0;whiteSpace=wrap;html=1;fillColor=#d5e8d4;strokeColor=#82b366;" vertex="1" parent="1">
          <mxGeometry x="320" y="520" width="20" height="20" as="geometry" />
        </mxCell>
        <mxCell id="Vnse6Dm6Ba-L_hpYAqCk-42" value="" style="rounded=0;whiteSpace=wrap;html=1;fillColor=#d5e8d4;strokeColor=#82b366;" vertex="1" parent="1">
          <mxGeometry x="380" y="620" width="20" height="20" as="geometry" />
        </mxCell>
        <mxCell id="Vnse6Dm6Ba-L_hpYAqCk-43" value="" style="rounded=0;whiteSpace=wrap;html=1;fillColor=#d5e8d4;strokeColor=#82b366;" vertex="1" parent="1">
          <mxGeometry x="380" y="530" width="20" height="20" as="geometry" />
        </mxCell>
        <mxCell id="Vnse6Dm6Ba-L_hpYAqCk-44" value="" style="rounded=0;whiteSpace=wrap;html=1;fillColor=#d5e8d4;strokeColor=#82b366;" vertex="1" parent="1">
          <mxGeometry x="380" y="560" width="20" height="20" as="geometry" />
        </mxCell>
        <mxCell id="Vnse6Dm6Ba-L_hpYAqCk-45" value="" style="rounded=0;whiteSpace=wrap;html=1;fillColor=#d5e8d4;strokeColor=#82b366;" vertex="1" parent="1">
          <mxGeometry x="380" y="590" width="20" height="20" as="geometry" />
        </mxCell>
        <mxCell id="Vnse6Dm6Ba-L_hpYAqCk-46" value="" style="rounded=0;whiteSpace=wrap;html=1;fillColor=#d5e8d4;strokeColor=#82b366;" vertex="1" parent="1">
          <mxGeometry x="380" y="650" width="20" height="20" as="geometry" />
        </mxCell>
        <mxCell id="Vnse6Dm6Ba-L_hpYAqCk-47" value="动作序列" style="text;html=1;align=center;verticalAlign=middle;whiteSpace=wrap;rounded=0;" vertex="1" parent="1">
          <mxGeometry x="70" y="555" width="20" height="90" as="geometry" />
        </mxCell>
        <mxCell id="Vnse6Dm6Ba-L_hpYAqCk-48" value="环境信息" style="text;html=1;align=center;verticalAlign=middle;whiteSpace=wrap;rounded=0;" vertex="1" parent="1">
          <mxGeometry x="170" y="400" width="60" height="30" as="geometry" />
        </mxCell>
        <mxCell id="Vnse6Dm6Ba-L_hpYAqCk-49" value="任务标识符" style="text;html=1;align=center;verticalAlign=middle;whiteSpace=wrap;rounded=0;" vertex="1" parent="1">
          <mxGeometry x="265" y="480" width="70" height="30" as="geometry" />
        </mxCell>
        <mxCell id="Vnse6Dm6Ba-L_hpYAqCk-62" style="edgeStyle=orthogonalEdgeStyle;rounded=0;orthogonalLoop=1;jettySize=auto;html=1;" edge="1" parent="1" source="Vnse6Dm6Ba-L_hpYAqCk-50">
          <mxGeometry relative="1" as="geometry">
            <mxPoint x="192.37931034482767" y="44.79310344827593" as="targetPoint" />
            <Array as="points">
              <mxPoint x="516" y="45" />
            </Array>
          </mxGeometry>
        </mxCell>
        <mxCell id="Vnse6Dm6Ba-L_hpYAqCk-50" value="仿真环境" style="rounded=0;whiteSpace=wrap;html=1;fillColor=#fad7ac;strokeColor=#b46504;" vertex="1" parent="1">
          <mxGeometry x="456" y="220" width="120" height="60" as="geometry" />
        </mxCell>
        <mxCell id="Vnse6Dm6Ba-L_hpYAqCk-60" value="生成的可执行动作序列" style="text;html=1;align=center;verticalAlign=middle;whiteSpace=wrap;rounded=0;" vertex="1" parent="1">
          <mxGeometry x="310" y="330" width="136" height="20" as="geometry" />
        </mxCell>
        <mxCell id="Vnse6Dm6Ba-L_hpYAqCk-63" value="环境信息更新" style="text;html=1;align=center;verticalAlign=middle;whiteSpace=wrap;rounded=0;" vertex="1" parent="1">
          <mxGeometry x="405" y="18" width="74" height="30" as="geometry" />
        </mxCell>
      </root>
    </mxGraphModel>
  </diagram>
</mxfile>
